<?xml version="1.0" standalone="no"?>
<!DOCTYPE svg PUBLIC "-//W3C//DTD SVG 20010904//EN"
 "http://www.w3.org/TR/2001/REC-SVG-20010904/DTD/svg10.dtd">
<svg version="1.0" xmlns="http://www.w3.org/2000/svg"
 width="350.000000pt" height="350.000000pt" viewBox="0 0 350.000000 350.000000"
 preserveAspectRatio="xMidYMid meet">
<metadata>
Created by potrace 1.16, written by Peter Selinger 2001-2019
</metadata>
<g transform="translate(0.000000,350.000000) scale(0.100000,-0.100000)"
fill="#000000" stroke="none">
<path d="M2560 2152 c-65 -35 -89 -125 -50 -190 20 -32 306 -322 319 -322 3 0
48 42 99 93 l92 93 -80 92 c-44 51 -85 92 -90 92 -5 0 -29 21 -52 46 -98 106
-167 134 -238 96z"/>
<path d="M993 1830 c-39 -24 -53 -48 -53 -95 0 -79 58 -132 133 -122 76 10
123 89 94 160 -29 69 -111 96 -174 57z m111 -41 c20 -16 26 -29 26 -59 0 -30
-6 -43 -26 -59 -51 -40 -110 -16 -120 51 -5 30 -2 41 19 62 31 31 65 33 101 5z"/>
<path d="M1915 1756 c-4 -46 -4 -98 0 -116 l7 -33 70 5 c58 5 74 10 98 33 35
34 45 83 26 128 -21 52 -50 67 -127 67 l-67 0 -7 -84z m147 27 c25 -22 24 -84
-2 -108 -11 -10 -36 -18 -57 -19 l-38 -1 -3 73 -3 72 42 0 c25 0 50 -7 61 -17z"/>
</g>
</svg>
